PathFileType  4	(X/Y/Z) C:\Users\antoi\Documents\MyRepositories\mobilecap\ResultsAnalysis
DataRate	CameraRate	NumFrames	NumMarkers	Units	OrigDataRate	OrigDataStartFrame	OrigNumFrames
100.0	100.0	6	51	mm	100.0	1	133
Frame#	Time	r_knee			r_shank_antsup			r_ankle			r_calc			r_5meta			r_toe			L_knee			L_shank_antsup			L_ankle			L_calc			L_5meta			L_toe			r_sh2			r_sh3			r_sh4			L_sh2			L_sh3			r_thigh1			r_thigh2			r_thigh3			r_thigh4			r_thigh5			L_thigh1			L_thigh2			L_thigh3			L_thigh4			r.ASIS			r.PSIS			L.ASIS			L.PSIS			C7			R_Shoulder			L_Shoulder			R_Sternum			L_Sternum			R_humerus			R_elbow_med			R_elbow_lat			R_forearm			R_wrist_radius			R_wrist_ulna			L_humerus			L_elbow_med			L_elbow_lat			L_forearm			L_wrist_radius			L_wrist_ulna			R_HJC			L_HJC			R_HJC_reg			L_HJC_reg			
		X1	Y1	Z1	X2	Y2	Z2	X3	Y3	Z3	X4	Y4	Z4	X5	Y5	Z5	X6	Y6	Z6	X7	Y7	Z7	X8	Y8	Z8	X9	Y9	Z9	X10	Y10	Z10	X11	Y11	Z11	X12	Y12	Z12	X13	Y13	Z13	X14	Y14	Z14	X15	Y15	Z15	X16	Y16	Z16	X17	Y17	Z17	X18	Y18	Z18	X19	Y19	Z19	X20	Y20	Z20	X21	Y21	Z21	X22	Y22	Z22	X23	Y23	Z23	X24	Y24	Z24	X25	Y25	Z25	X26	Y26	Z26	X27	Y27	Z27	X28	Y28	Z28	X29	Y29	Z29	X30	Y30	Z30	X31	Y31	Z31	X32	Y32	Z32	X33	Y33	Z33	X34	Y34	Z34	X35	Y35	Z35	X36	Y36	Z36	X37	Y37	Z37	X38	Y38	Z38	X39	Y39	Z39	X40	Y40	Z40	X41	Y41	Z41	X42	Y42	Z42	X43	Y43	Z43	X44	Y44	Z44	X45	Y45	Z45	X46	Y46	Z46	X47	Y47	Z47	X48	Y48	Z48	X49	Y49	Z49	X50	Y50	Z50	X51	Y51	Z51	

1	0.00000000	-88.65226	494.71280	-64.28512	-39.96605	473.19899	-75.48183	54.25343	115.78683	-105.08507	15.76668	60.72080	-153.47097	200.56793	116.38524	-72.06808	218.18175	161.48606	-125.16263	-397.80983	481.28346	-362.75939	-398.61265	389.76902	-369.15563	-537.54865	98.37590	-298.10618	-603.36047	66.25347	-242.47917	-427.10192	37.34101	-320.33559	-380.13816	54.22714	-269.61950	5.79558	368.30513	-89.66371	-95.28667	440.38734	-34.29805	-51.57532	334.85804	-33.57866	-481.80637	424.65928	-376.32295	-520.56477	309.71435	-363.72563	-132.51958	786.28435	-134.97643	-82.75079	687.01906	-128.18563	-83.53396	666.77923	-62.20578	-180.20946	770.67445	-33.82592	-129.93148	668.76411	-27.16594	-271.65532	785.35540	-391.70956	-305.29325	647.23190	-390.39931	-381.94977	809.73690	-385.78757	-415.38420	678.70988	-364.14771	-180.96802	934.81563	-100.71437	-381.69770	966.15598	-146.69676	-207.54792	923.44210	-334.09872	-393.81475	973.71052	-243.49954	-318.56675	1440.60271	-235.96815	-266.00943	1409.93532	-73.41366	-257.43553	1386.65789	-388.79777	-205.11102	1339.87335	-212.85322	-209.87988	1333.38485	-249.69144	-339.92749	1187.08482	22.13551	-425.88275	1122.05658	-9.76705	-396.77956	1115.18258	45.32568	-391.93906	974.42174	74.80864	-400.45896	867.22321	66.93902	-430.43844	880.99709	98.06763	-200.22022	1168.61186	-464.98948	-218.02593	1050.03050	-426.19055	-193.04910	1062.88861	-480.80579	-57.99411	1003.50917	-469.66523	31.98159	958.64354	-427.79969	15.73662	926.17741	-453.24427	-259.89002	852.42531	-122.72540	-296.26261	857.69485	-309.82108	-251.84120	849.67847	-130.57527	-271.06107	861.66159	-284.12432	
2	0.01000000	-74.93947	491.78412	-63.77256	-26.01470	470.78586	-74.53107	72.79003	114.32566	-106.40110	35.85269	58.66659	-155.49991	218.89073	117.63341	-72.15188	235.94238	163.70271	-124.73335	-388.62545	479.81282	-362.62493	-390.96383	387.97956	-369.14172	-536.44858	99.66780	-298.62446	-602.61553	68.09236	-242.83434	-427.06316	37.13074	-320.51166	-380.04862	53.94010	-269.35145	21.79740	366.47969	-89.31156	-82.16728	436.98567	-34.28903	-36.73923	331.88496	-34.32030	-473.24390	424.80563	-376.26684	-514.45710	310.55133	-364.05939	-117.86856	783.85031	-133.85334	-67.94463	684.98343	-126.77890	-68.71669	664.52077	-60.82113	-165.58803	768.15310	-32.72433	-115.36131	666.15008	-26.18691	-260.36808	782.80891	-391.73972	-294.89559	645.02028	-390.50988	-370.32998	807.99720	-384.53795	-404.45601	677.26412	-363.23919	-165.98446	931.31851	-100.79435	-367.17252	963.28672	-145.13361	-194.76464	920.30332	-334.28865	-379.97775	970.75252	-241.84393	-304.68792	1437.77229	-234.41295	-252.18638	1406.68222	-71.86480	-244.26397	1383.78470	-387.42357	-191.36241	1336.66178	-211.52118	-196.11299	1330.27705	-248.46958	-327.67306	1184.43671	23.58917	-413.90616	1119.75885	-8.67515	-385.40585	1112.98980	46.66543	-381.31196	972.32450	76.70901	-389.47245	865.19377	69.28265	-420.40483	879.00177	99.78013	-185.68642	1166.75044	-463.98627	-201.61739	1047.90115	-425.33193	-176.95077	1061.16146	-479.93496	-40.94168	1004.99713	-468.60442	50.14339	962.03002	-426.49636	34.64255	929.26479	-452.13220	-245.34022	849.16169	-122.36062	-283.34735	854.69106	-309.10912	-237.57351	846.54916	-130.06690	-257.92185	858.41031	-283.71902	
3	0.02000000	-60.84540	488.99131	-63.44635	-11.70262	468.28239	-73.80543	89.88862	112.38196	-107.67792	54.20732	56.37743	-157.46203	235.79756	117.67284	-72.22713	252.55495	164.50957	-124.36006	-379.07624	478.26876	-362.37645	-383.04293	386.17711	-369.03537	-535.23879	101.11999	-299.12329	-601.82540	70.20430	-243.22801	-426.97231	36.91675	-320.67959	-379.87907	53.56135	-269.17295	37.58423	364.36777	-89.13309	-68.79204	433.82094	-34.34063	-22.09605	328.92471	-35.11949	-464.36431	424.98388	-376.09866	-508.11790	311.49528	-364.29655	-103.13283	781.61638	-132.59143	-52.94905	683.15454	-125.34497	-53.77882	662.39858	-59.43777	-150.96888	765.65715	-31.56662	-100.69713	663.61138	-25.22460	-248.89876	780.28415	-391.63881	-284.24369	642.79479	-390.47520	-358.52491	806.21393	-383.19001	-393.28915	675.73753	-362.19201	-150.94285	927.94945	-100.81578	-352.56957	960.47286	-143.58968	-181.83282	917.23047	-334.42001	-366.04407	967.82473	-240.19746	-290.74085	1434.99681	-232.82631	-238.33588	1403.49283	-70.28245	-231.00699	1380.99378	-386.01252	-177.49352	1333.53394	-210.13772	-182.25721	1327.25469	-247.20601	-315.24762	1181.77261	25.04155	-401.70798	1117.39896	-7.57242	-373.78089	1110.74031	48.00435	-370.33934	970.16188	78.57819	-378.17007	863.10374	71.58500	-409.98217	876.94028	101.47671	-171.23894	1164.89420	-462.93113	-185.39964	1045.80828	-424.39409	-161.06205	1059.43684	-479.02125	-24.11705	1006.35300	-467.54758	68.03223	965.27096	-425.24561	53.24317	932.20970	-451.03573	-230.69348	845.99625	-121.94244	-270.27337	851.73195	-308.35484	-223.19288	843.51893	-129.49651	-244.64367	855.21880	-283.25349	
4	0.03000000	-46.08937	486.44552	-63.44856	3.22812	465.62186	-73.49185	104.49590	109.66246	-108.88408	69.54612	53.77813	-159.30061	250.25192	115.61295	-72.32212	267.19228	162.85928	-124.12364	-368.86783	476.59597	-361.92387	-374.63009	384.34361	-368.76878	-533.82307	102.87334	-299.58918	-600.95322	72.83479	-243.69821	-426.78804	36.69390	-320.83190	-379.57425	53.02968	-269.13575	52.98505	361.76419	-89.27185	-54.92805	431.06023	-34.53468	-7.79388	325.99241	-36.02996	-454.90082	425.22255	-375.73380	-501.35336	312.64037	-364.36222	-88.22703	779.72939	-131.09195	-37.61709	681.67647	-123.87467	-38.62479	660.50136	-58.06892	-136.33647	763.20179	-30.31622	-85.86037	661.19722	-24.30333	-237.08522	777.79446	-391.30452	-273.12133	640.54439	-390.18001	-346.38238	804.35696	-381.67577	-381.68188	674.06682	-360.89438	-135.78555	924.81221	-100.71858	-337.81483	957.76525	-142.07427	-168.62040	914.27959	-334.43300	-351.92466	964.96677	-238.56555	-276.67536	1432.32242	-231.18003	-224.42999	1400.42443	-68.63941	-217.59159	1378.35343	-384.53058	-163.54666	1330.54099	-208.67827	-168.24837	1324.38914	-245.86813	-302.50920	1179.08882	26.49707	-389.09937	1114.92901	-6.45670	-361.69746	1108.39204	49.33948	-358.74545	967.88864	80.39417	-366.28091	860.90855	73.81226	-398.85372	874.76061	103.14389	-156.94559	1163.04778	-461.78328	-169.53419	1043.77751	-423.31888	-145.55672	1057.71397	-478.03422	-7.71463	1007.46590	-466.49816	85.41560	968.23464	-424.08878	71.28096	934.88386	-449.96199	-215.86706	843.01179	-121.41937	-256.90269	848.86129	-307.51733	-208.59794	840.66216	-128.80882	-231.10315	852.14363	-282.67268	
5	0.04000000	-30.57447	484.21732	-63.84234	18.85432	462.78786	-73.70258	116.18037	106.17689	-109.99809	81.31144	51.03700	-160.97769	261.82376	111.08994	-72.51434	279.53707	158.30347	-124.13152	-357.81569	474.77015	-361.21834	-365.58276	382.46440	-368.31555	-532.11924	105.04035	-300.02144	-599.95804	76.18427	-244.27860	-426.48534	36.45774	-320.96290	-379.11345	52.32883	-269.24092	67.89827	358.60821	-89.81507	-40.41101	428.76518	-34.96562	6.09369	323.11426	-37.09212	-444.66747	425.54712	-375.13295	-494.02695	314.06264	-364.21803	-73.08031	778.25495	-129.32827	-21.88350	680.59833	-122.39215	-23.21007	658.85096	-56.74916	-121.65368	760.79768	-28.97082	-70.80832	658.92441	-23.46214	-224.80695	775.34656	-390.67961	-261.37755	638.26713	-389.56027	-333.80925	802.41814	-379.97317	-369.49473	672.21872	-359.28513	-120.47151	921.97586	-100.44567	-322.85448	955.21406	-140.58302	-155.03554	911.49282	-334.26941	-337.55772	962.23420	-236.94984	-262.47601	1429.78666	-229.45240	-210.44745	1397.52600	-66.91837	-203.97570	1375.91250	-382.95133	-149.73364	1327.69893	-207.14941	-154.06903	1321.73307	-244.43818	-289.36648	1176.40066	27.96570	-375.95169	1112.32649	-5.33771	-349.02529	1105.92912	50.66475	-346.36933	965.49170	82.14716	-353.61732	858.59073	75.94178	-386.82599	872.43634	104.77083	-142.85457	1161.21726	-460.52156	-154.14393	1041.82015	-422.08318	-130.55886	1055.98927	-476.96338	8.11677	1008.25841	-465.45993	102.11860	970.81161	-423.04915	88.56661	937.17938	-448.90761	-200.81532	840.27120	-120.74518	-243.14590	846.12323	-306.55979	-193.72175	838.02457	-127.95896	-217.21910	849.23785	-281.92850	
6	0.05000000	-14.40650	482.32988	-64.59731	35.06814	459.83307	-74.45259	125.16108	102.22682	-111.00582	89.70533	48.53743	-162.47978	270.70251	104.27862	-72.91472	289.79346	151.00446	-124.49600	-345.82761	472.80130	-360.25276	-355.81596	380.54810	-367.69308	-530.04968	107.71199	-300.43882	-598.76705	80.40639	-244.98999	-426.05481	36.20517	-321.06965	-378.50405	51.47715	-269.45620	82.31360	355.00485	-90.78198	-25.18029	426.90115	-35.69957	19.60445	320.33595	-38.32125	-433.54928	425.98727	-374.30072	-486.04849	315.82777	-363.86336	-57.63345	777.18183	-127.35854	-5.76398	679.87697	-120.96240	-7.53861	657.41162	-55.53861	-106.84762	758.46747	-27.56698	-55.52924	656.78891	-22.75891	-211.98318	772.94799	-389.74938	-248.91806	635.97462	-388.60740	-320.76256	800.40933	-378.09760	-356.64023	670.19234	-357.36214	-104.97846	919.47695	-99.95286	-307.65616	952.87589	-139.09968	-141.02953	908.89705	-333.87914	-322.91199	959.69463	-235.34960	-248.15106	1427.42443	-227.62762	-196.36531	1394.83608	-65.10879	-190.14730	1373.70109	-381.25942	-136.25383	1325.01508	-205.56608	-139.73764	1319.32355	-242.91096	-275.76784	1173.73643	29.45964	-362.19111	1109.59403	-4.23131	-335.70365	1103.36162	51.97354	-333.15317	962.98605	83.83808	-340.07618	856.15848	77.96422	-373.82503	869.96739	106.34961	-128.98944	1159.41048	-459.14592	-139.30389	1039.93417	-420.69976	-116.13312	1054.25674	-475.81653	23.28593	1008.68632	-464.43728	118.03765	972.91914	-422.13066	104.99266	939.00718	-447.86208	-185.53023	837.82068	-119.88191	-228.96720	843.56061	-305.45161	-178.53650	835.63823	-126.91079	-202.95998	846.54866	-280.97698	
